# xmcd
# 
# Track frame offsets:
#     150
#     17630
#     38130
#     59647
#     92357
#     111097
#     141667
#     168862
#     189437
#     206427
#     213450
#     241570
#     255087
#     274825
#     283105
# 
# Disc length: 4524
# 
# Revision: 24
# Processed by: cddbd v1.5.2PL0 Copyright (c) Steve Scherf et al.
# Submitted via: fre:ac v1.0.27
# 
DISCID=cf11aa0f
DTITLE=Jan Garbarek - Visible World
DYEAR=1995
DGENRE=Jazz
TTITLE0=Red Wind
TTITLE1=The Creek
TTITLE2=The Survivor
TTITLE3=The Healing Smoke
TTITLE4=Visible World (chiaro)
TTITLE5=Desolate Mountains I
TTITLE6=Desolate Mountains II
TTITLE7=Visible World (scuro)
TTITLE8=Giulietta
TTITLE9=Desolate Mountains III
TTITLE10=Pygmy Lullaby
TTITLE11=The Quest
TTITLE12=The Arrow
TTITLE13=The Scythe
TTITLE14=Evening Land
EXTD=
EXTT0=
EXTT1=
EXTT2=
EXTT3=
EXTT4=
EXTT5=
EXTT6=
EXTT7=
EXTT8=
EXTT9=
EXTT10=
EXTT11=
EXTT12=
EXTT13=
EXTT14=
PLAYORDER=
